<mxfile host="app.diagrams.net" agent="Mozilla/5.0 (Macintosh; Intel Mac OS X 10_15_7) AppleWebKit/605.1.15 (KHTML, like Gecko) Version/18.3.1 Safari/605.1.15" version="26.1.1" pages="4">
  <diagram id="C5RBs43oDa-KdzZeNtuy" name="Collection">
    <mxGraphModel dx="819" dy="653" grid="1" gridSize="10" guides="1" tooltips="1" connect="1" arrows="1" fold="1" page="1" pageScale="1" pageWidth="827" pageHeight="1169" math="0" shadow="0">
      <root>
        <mxCell id="WIyWlLk6GJQsqaUBKTNV-0" />
        <mxCell id="WIyWlLk6GJQsqaUBKTNV-1" parent="WIyWlLk6GJQsqaUBKTNV-0" />
        <mxCell id="t_siYUt48UW-tecDmQAx-3" value="" style="edgeStyle=none;curved=1;rounded=0;orthogonalLoop=1;jettySize=auto;html=1;fontSize=12;startSize=8;endSize=8;" parent="WIyWlLk6GJQsqaUBKTNV-1" source="t_siYUt48UW-tecDmQAx-1" target="t_siYUt48UW-tecDmQAx-2" edge="1">
          <mxGeometry relative="1" as="geometry" />
        </mxCell>
        <mxCell id="t_siYUt48UW-tecDmQAx-1" value="Start" style="rounded=1;whiteSpace=wrap;html=1;arcSize=50;" parent="WIyWlLk6GJQsqaUBKTNV-1" vertex="1">
          <mxGeometry x="300" y="170" width="100" height="40" as="geometry" />
        </mxCell>
        <mxCell id="t_siYUt48UW-tecDmQAx-7" value="" style="edgeStyle=none;curved=1;rounded=0;orthogonalLoop=1;jettySize=auto;html=1;fontSize=12;startSize=8;endSize=8;" parent="WIyWlLk6GJQsqaUBKTNV-1" source="t_siYUt48UW-tecDmQAx-2" target="t_siYUt48UW-tecDmQAx-6" edge="1">
          <mxGeometry relative="1" as="geometry" />
        </mxCell>
        <mxCell id="t_siYUt48UW-tecDmQAx-40" value="" style="edgeStyle=none;curved=1;rounded=0;orthogonalLoop=1;jettySize=auto;html=1;fontSize=12;startSize=8;endSize=8;" parent="WIyWlLk6GJQsqaUBKTNV-1" source="t_siYUt48UW-tecDmQAx-2" target="t_siYUt48UW-tecDmQAx-39" edge="1">
          <mxGeometry relative="1" as="geometry" />
        </mxCell>
        <mxCell id="t_siYUt48UW-tecDmQAx-2" value="Identifikasi Bukti Digital" style="shape=parallelogram;perimeter=parallelogramPerimeter;whiteSpace=wrap;html=1;fixedSize=1;rounded=1;size=20;arcSize=0;" parent="WIyWlLk6GJQsqaUBKTNV-1" vertex="1">
          <mxGeometry x="290" y="235" width="120" height="60" as="geometry" />
        </mxCell>
        <mxCell id="t_siYUt48UW-tecDmQAx-9" value="" style="edgeStyle=none;curved=1;rounded=0;orthogonalLoop=1;jettySize=auto;html=1;fontSize=12;startSize=8;endSize=8;" parent="WIyWlLk6GJQsqaUBKTNV-1" source="t_siYUt48UW-tecDmQAx-6" target="t_siYUt48UW-tecDmQAx-8" edge="1">
          <mxGeometry relative="1" as="geometry" />
        </mxCell>
        <mxCell id="t_siYUt48UW-tecDmQAx-6" value="Tahapan Pengambilan Bukti Digital" style="rounded=1;whiteSpace=wrap;html=1;arcSize=0;" parent="WIyWlLk6GJQsqaUBKTNV-1" vertex="1">
          <mxGeometry x="290" y="320" width="120" height="60" as="geometry" />
        </mxCell>
        <mxCell id="t_siYUt48UW-tecDmQAx-11" value="" style="edgeStyle=none;curved=1;rounded=0;orthogonalLoop=1;jettySize=auto;html=1;fontSize=12;startSize=8;endSize=8;" parent="WIyWlLk6GJQsqaUBKTNV-1" source="t_siYUt48UW-tecDmQAx-8" target="t_siYUt48UW-tecDmQAx-10" edge="1">
          <mxGeometry relative="1" as="geometry" />
        </mxCell>
        <mxCell id="t_siYUt48UW-tecDmQAx-8" value="Akuisisi" style="rounded=1;whiteSpace=wrap;html=1;arcSize=0;" parent="WIyWlLk6GJQsqaUBKTNV-1" vertex="1">
          <mxGeometry x="290" y="400" width="120" height="60" as="geometry" />
        </mxCell>
        <mxCell id="t_siYUt48UW-tecDmQAx-13" value="" style="edgeStyle=none;curved=1;rounded=0;orthogonalLoop=1;jettySize=auto;html=1;fontSize=12;startSize=8;endSize=8;" parent="WIyWlLk6GJQsqaUBKTNV-1" source="t_siYUt48UW-tecDmQAx-10" target="t_siYUt48UW-tecDmQAx-12" edge="1">
          <mxGeometry relative="1" as="geometry" />
        </mxCell>
        <mxCell id="t_siYUt48UW-tecDmQAx-38" value="Yes" style="edgeLabel;html=1;align=center;verticalAlign=middle;resizable=0;points=[];fontSize=12;" parent="t_siYUt48UW-tecDmQAx-13" vertex="1" connectable="0">
          <mxGeometry x="-0.08" y="-1" relative="1" as="geometry">
            <mxPoint as="offset" />
          </mxGeometry>
        </mxCell>
        <mxCell id="t_siYUt48UW-tecDmQAx-15" value="" style="edgeStyle=none;curved=1;rounded=0;orthogonalLoop=1;jettySize=auto;html=1;fontSize=12;startSize=8;endSize=8;" parent="WIyWlLk6GJQsqaUBKTNV-1" source="t_siYUt48UW-tecDmQAx-10" target="t_siYUt48UW-tecDmQAx-14" edge="1">
          <mxGeometry relative="1" as="geometry" />
        </mxCell>
        <mxCell id="t_siYUt48UW-tecDmQAx-37" value="No" style="edgeLabel;html=1;align=center;verticalAlign=middle;resizable=0;points=[];fontSize=12;" parent="t_siYUt48UW-tecDmQAx-15" vertex="1" connectable="0">
          <mxGeometry x="-0.28" y="1" relative="1" as="geometry">
            <mxPoint as="offset" />
          </mxGeometry>
        </mxCell>
        <mxCell id="t_siYUt48UW-tecDmQAx-10" value="System&amp;nbsp;&lt;div&gt;sedang&amp;nbsp;&lt;div&gt;ON&amp;nbsp;&lt;/div&gt;&lt;/div&gt;" style="rhombus;whiteSpace=wrap;html=1;rounded=1;arcSize=0;align=center;" parent="WIyWlLk6GJQsqaUBKTNV-1" vertex="1">
          <mxGeometry x="295" y="480" width="115" height="100" as="geometry" />
        </mxCell>
        <mxCell id="t_siYUt48UW-tecDmQAx-35" style="edgeStyle=orthogonalEdgeStyle;rounded=0;orthogonalLoop=1;jettySize=auto;html=1;entryX=1;entryY=0.5;entryDx=0;entryDy=0;fontSize=12;startSize=8;endSize=8;" parent="WIyWlLk6GJQsqaUBKTNV-1" source="t_siYUt48UW-tecDmQAx-12" target="t_siYUt48UW-tecDmQAx-33" edge="1">
          <mxGeometry relative="1" as="geometry">
            <Array as="points">
              <mxPoint x="550" y="746" />
            </Array>
          </mxGeometry>
        </mxCell>
        <mxCell id="t_siYUt48UW-tecDmQAx-12" value="Tahapan akuisisi secara Live Acquisition" style="rounded=1;whiteSpace=wrap;html=1;arcSize=0;" parent="WIyWlLk6GJQsqaUBKTNV-1" vertex="1">
          <mxGeometry x="490" y="505" width="120" height="60" as="geometry" />
        </mxCell>
        <mxCell id="t_siYUt48UW-tecDmQAx-34" value="" style="edgeStyle=none;curved=1;rounded=0;orthogonalLoop=1;jettySize=auto;html=1;fontSize=12;startSize=8;endSize=8;" parent="WIyWlLk6GJQsqaUBKTNV-1" source="t_siYUt48UW-tecDmQAx-14" target="t_siYUt48UW-tecDmQAx-33" edge="1">
          <mxGeometry relative="1" as="geometry" />
        </mxCell>
        <mxCell id="t_siYUt48UW-tecDmQAx-14" value="Tahapan akuisisi secara Dead/Offline Acquisition" style="whiteSpace=wrap;html=1;rounded=1;arcSize=0;" parent="WIyWlLk6GJQsqaUBKTNV-1" vertex="1">
          <mxGeometry x="290" y="626" width="120" height="60" as="geometry" />
        </mxCell>
        <mxCell id="t_siYUt48UW-tecDmQAx-31" value="" style="edgeStyle=none;curved=1;rounded=0;orthogonalLoop=1;jettySize=auto;html=1;fontSize=12;startSize=8;endSize=8;" parent="WIyWlLk6GJQsqaUBKTNV-1" source="t_siYUt48UW-tecDmQAx-26" target="t_siYUt48UW-tecDmQAx-30" edge="1">
          <mxGeometry relative="1" as="geometry" />
        </mxCell>
        <mxCell id="t_siYUt48UW-tecDmQAx-50" style="edgeStyle=orthogonalEdgeStyle;rounded=0;orthogonalLoop=1;jettySize=auto;html=1;" parent="WIyWlLk6GJQsqaUBKTNV-1" source="t_siYUt48UW-tecDmQAx-26" target="t_siYUt48UW-tecDmQAx-49" edge="1">
          <mxGeometry relative="1" as="geometry" />
        </mxCell>
        <mxCell id="t_siYUt48UW-tecDmQAx-26" value="Preservation" style="rounded=1;whiteSpace=wrap;html=1;arcSize=0;" parent="WIyWlLk6GJQsqaUBKTNV-1" vertex="1">
          <mxGeometry x="290" y="806" width="120" height="60" as="geometry" />
        </mxCell>
        <mxCell id="t_siYUt48UW-tecDmQAx-30" value="Chain of Custody" style="shape=document;whiteSpace=wrap;html=1;boundedLbl=1;rounded=1;arcSize=0;" parent="WIyWlLk6GJQsqaUBKTNV-1" vertex="1">
          <mxGeometry x="490" y="801" width="120" height="70" as="geometry" />
        </mxCell>
        <mxCell id="t_siYUt48UW-tecDmQAx-36" style="edgeStyle=none;curved=1;rounded=0;orthogonalLoop=1;jettySize=auto;html=1;entryX=0.5;entryY=0;entryDx=0;entryDy=0;fontSize=12;startSize=8;endSize=8;" parent="WIyWlLk6GJQsqaUBKTNV-1" source="t_siYUt48UW-tecDmQAx-33" target="t_siYUt48UW-tecDmQAx-26" edge="1">
          <mxGeometry relative="1" as="geometry" />
        </mxCell>
        <mxCell id="t_siYUt48UW-tecDmQAx-33" value="Bukti Digital" style="shape=parallelogram;perimeter=parallelogramPerimeter;whiteSpace=wrap;html=1;fixedSize=1;rounded=1;arcSize=0;" parent="WIyWlLk6GJQsqaUBKTNV-1" vertex="1">
          <mxGeometry x="290" y="716" width="120" height="60" as="geometry" />
        </mxCell>
        <mxCell id="t_siYUt48UW-tecDmQAx-39" value="Log activity investigasi forensik digital" style="shape=document;whiteSpace=wrap;html=1;boundedLbl=1;rounded=1;" parent="WIyWlLk6GJQsqaUBKTNV-1" vertex="1">
          <mxGeometry x="490" y="230" width="120" height="70" as="geometry" />
        </mxCell>
        <mxCell id="t_siYUt48UW-tecDmQAx-52" value="" style="group" parent="WIyWlLk6GJQsqaUBKTNV-1" vertex="1" connectable="0">
          <mxGeometry x="320" y="900" width="60" height="60" as="geometry" />
        </mxCell>
        <mxCell id="t_siYUt48UW-tecDmQAx-49" value="" style="verticalLabelPosition=bottom;verticalAlign=top;html=1;shape=offPageConnector;rounded=0;size=0.5;" parent="t_siYUt48UW-tecDmQAx-52" vertex="1">
          <mxGeometry width="60" height="60" as="geometry" />
        </mxCell>
        <mxCell id="t_siYUt48UW-tecDmQAx-51" value="A" style="text;html=1;align=center;verticalAlign=middle;whiteSpace=wrap;rounded=0;" parent="t_siYUt48UW-tecDmQAx-52" vertex="1">
          <mxGeometry y="7" width="60" height="30" as="geometry" />
        </mxCell>
      </root>
    </mxGraphModel>
  </diagram>
  <diagram id="TwgPNCt6xu_8tkg0PEDv" name="Examination">
    <mxGraphModel dx="733" dy="584" grid="1" gridSize="10" guides="1" tooltips="1" connect="1" arrows="1" fold="1" page="1" pageScale="1" pageWidth="827" pageHeight="1169" math="0" shadow="0">
      <root>
        <mxCell id="0" />
        <mxCell id="1" parent="0" />
        <mxCell id="v5y05sMNcqEESHBAIN26-1" value="" style="group" vertex="1" connectable="0" parent="1">
          <mxGeometry x="109" y="59" width="60" height="60" as="geometry" />
        </mxCell>
        <mxCell id="v5y05sMNcqEESHBAIN26-2" value="" style="verticalLabelPosition=bottom;verticalAlign=top;html=1;shape=offPageConnector;rounded=0;size=0.5;" vertex="1" parent="v5y05sMNcqEESHBAIN26-1">
          <mxGeometry width="60" height="60" as="geometry" />
        </mxCell>
        <mxCell id="v5y05sMNcqEESHBAIN26-3" value="A" style="text;html=1;align=center;verticalAlign=middle;whiteSpace=wrap;rounded=0;" vertex="1" parent="v5y05sMNcqEESHBAIN26-1">
          <mxGeometry y="7" width="60" height="30" as="geometry" />
        </mxCell>
        <mxCell id="vrHwYXxvHCc7wUz3a9I5-3" style="edgeStyle=orthogonalEdgeStyle;rounded=0;orthogonalLoop=1;jettySize=auto;html=1;entryX=0.5;entryY=0;entryDx=0;entryDy=0;" edge="1" parent="1" source="v5y05sMNcqEESHBAIN26-8" target="vrHwYXxvHCc7wUz3a9I5-1">
          <mxGeometry relative="1" as="geometry" />
        </mxCell>
        <mxCell id="v5y05sMNcqEESHBAIN26-8" value="Bukti Digital" style="shape=parallelogram;perimeter=parallelogramPerimeter;whiteSpace=wrap;html=1;fixedSize=1;" vertex="1" parent="1">
          <mxGeometry x="79" y="150" width="120" height="60" as="geometry" />
        </mxCell>
        <mxCell id="v5y05sMNcqEESHBAIN26-9" value="" style="endArrow=classic;html=1;rounded=0;exitX=0.5;exitY=1;exitDx=0;exitDy=0;" edge="1" parent="1" source="v5y05sMNcqEESHBAIN26-2" target="v5y05sMNcqEESHBAIN26-8">
          <mxGeometry width="50" height="50" relative="1" as="geometry">
            <mxPoint x="165" y="340" as="sourcePoint" />
            <mxPoint x="215" y="290" as="targetPoint" />
          </mxGeometry>
        </mxCell>
        <mxCell id="v5y05sMNcqEESHBAIN26-15" value="" style="edgeStyle=orthogonalEdgeStyle;rounded=0;orthogonalLoop=1;jettySize=auto;html=1;" edge="1" parent="1" source="v5y05sMNcqEESHBAIN26-12" target="v5y05sMNcqEESHBAIN26-14">
          <mxGeometry relative="1" as="geometry" />
        </mxCell>
        <mxCell id="v5y05sMNcqEESHBAIN26-35" value="Yes" style="edgeLabel;html=1;align=center;verticalAlign=middle;resizable=0;points=[];" vertex="1" connectable="0" parent="v5y05sMNcqEESHBAIN26-15">
          <mxGeometry x="-0.3573" y="-4" relative="1" as="geometry">
            <mxPoint as="offset" />
          </mxGeometry>
        </mxCell>
        <mxCell id="v5y05sMNcqEESHBAIN26-17" value="" style="edgeStyle=orthogonalEdgeStyle;rounded=0;orthogonalLoop=1;jettySize=auto;html=1;" edge="1" parent="1" source="v5y05sMNcqEESHBAIN26-12" target="v5y05sMNcqEESHBAIN26-16">
          <mxGeometry relative="1" as="geometry" />
        </mxCell>
        <mxCell id="v5y05sMNcqEESHBAIN26-34" value="No" style="edgeLabel;html=1;align=center;verticalAlign=middle;resizable=0;points=[];" vertex="1" connectable="0" parent="v5y05sMNcqEESHBAIN26-17">
          <mxGeometry x="-0.0794" y="-2" relative="1" as="geometry">
            <mxPoint as="offset" />
          </mxGeometry>
        </mxCell>
        <mxCell id="v5y05sMNcqEESHBAIN26-12" value="Linux" style="rhombus;whiteSpace=wrap;html=1;" vertex="1" parent="1">
          <mxGeometry x="260" y="326" width="80" height="80" as="geometry" />
        </mxCell>
        <mxCell id="vrHwYXxvHCc7wUz3a9I5-8" style="edgeStyle=orthogonalEdgeStyle;rounded=0;orthogonalLoop=1;jettySize=auto;html=1;entryX=0.5;entryY=0;entryDx=0;entryDy=0;" edge="1" parent="1" source="v5y05sMNcqEESHBAIN26-14" target="v5y05sMNcqEESHBAIN26-41">
          <mxGeometry relative="1" as="geometry">
            <Array as="points">
              <mxPoint x="300" y="530" />
              <mxPoint x="139" y="530" />
            </Array>
          </mxGeometry>
        </mxCell>
        <mxCell id="v5y05sMNcqEESHBAIN26-14" value="Tahapan examination untuk Linux" style="whiteSpace=wrap;html=1;" vertex="1" parent="1">
          <mxGeometry x="240" y="460" width="120" height="40" as="geometry" />
        </mxCell>
        <mxCell id="v5y05sMNcqEESHBAIN26-21" value="" style="edgeStyle=orthogonalEdgeStyle;rounded=0;orthogonalLoop=1;jettySize=auto;html=1;" edge="1" parent="1" source="v5y05sMNcqEESHBAIN26-16" target="v5y05sMNcqEESHBAIN26-20">
          <mxGeometry relative="1" as="geometry" />
        </mxCell>
        <mxCell id="v5y05sMNcqEESHBAIN26-37" value="Yes" style="edgeLabel;html=1;align=center;verticalAlign=middle;resizable=0;points=[];" vertex="1" connectable="0" parent="v5y05sMNcqEESHBAIN26-21">
          <mxGeometry x="-0.1394" y="3" relative="1" as="geometry">
            <mxPoint as="offset" />
          </mxGeometry>
        </mxCell>
        <mxCell id="v5y05sMNcqEESHBAIN26-23" value="" style="edgeStyle=orthogonalEdgeStyle;rounded=0;orthogonalLoop=1;jettySize=auto;html=1;" edge="1" parent="1" source="v5y05sMNcqEESHBAIN26-16" target="v5y05sMNcqEESHBAIN26-22">
          <mxGeometry relative="1" as="geometry" />
        </mxCell>
        <mxCell id="v5y05sMNcqEESHBAIN26-38" value="No" style="edgeLabel;html=1;align=center;verticalAlign=middle;resizable=0;points=[];" vertex="1" connectable="0" parent="v5y05sMNcqEESHBAIN26-23">
          <mxGeometry x="-0.2431" y="-2" relative="1" as="geometry">
            <mxPoint as="offset" />
          </mxGeometry>
        </mxCell>
        <mxCell id="v5y05sMNcqEESHBAIN26-16" value="Windows" style="rhombus;whiteSpace=wrap;html=1;" vertex="1" parent="1">
          <mxGeometry x="420" y="326" width="80" height="80" as="geometry" />
        </mxCell>
        <mxCell id="vrHwYXxvHCc7wUz3a9I5-9" style="edgeStyle=orthogonalEdgeStyle;rounded=0;orthogonalLoop=1;jettySize=auto;html=1;entryX=0.5;entryY=0;entryDx=0;entryDy=0;" edge="1" parent="1" source="v5y05sMNcqEESHBAIN26-20" target="v5y05sMNcqEESHBAIN26-41">
          <mxGeometry relative="1" as="geometry">
            <Array as="points">
              <mxPoint x="460" y="530" />
              <mxPoint x="139" y="530" />
            </Array>
          </mxGeometry>
        </mxCell>
        <mxCell id="v5y05sMNcqEESHBAIN26-20" value="Tahapan examination untuk Windows" style="whiteSpace=wrap;html=1;" vertex="1" parent="1">
          <mxGeometry x="400" y="460" width="120" height="40" as="geometry" />
        </mxCell>
        <mxCell id="vrHwYXxvHCc7wUz3a9I5-10" style="edgeStyle=orthogonalEdgeStyle;rounded=0;orthogonalLoop=1;jettySize=auto;html=1;entryX=0.5;entryY=0;entryDx=0;entryDy=0;" edge="1" parent="1" source="v5y05sMNcqEESHBAIN26-22" target="v5y05sMNcqEESHBAIN26-41">
          <mxGeometry relative="1" as="geometry">
            <mxPoint x="370" y="550" as="targetPoint" />
            <Array as="points">
              <mxPoint x="620" y="530" />
              <mxPoint x="139" y="530" />
            </Array>
          </mxGeometry>
        </mxCell>
        <mxCell id="v5y05sMNcqEESHBAIN26-22" value="Tahapan examination untuk Mac" style="whiteSpace=wrap;html=1;" vertex="1" parent="1">
          <mxGeometry x="560" y="346" width="120" height="40" as="geometry" />
        </mxCell>
        <mxCell id="vrHwYXxvHCc7wUz3a9I5-6" style="edgeStyle=orthogonalEdgeStyle;rounded=0;orthogonalLoop=1;jettySize=auto;html=1;" edge="1" parent="1" source="v5y05sMNcqEESHBAIN26-24" target="v5y05sMNcqEESHBAIN26-41">
          <mxGeometry relative="1" as="geometry" />
        </mxCell>
        <mxCell id="v5y05sMNcqEESHBAIN26-24" value="Tahapan examination untuk Non-volatile" style="whiteSpace=wrap;html=1;" vertex="1" parent="1">
          <mxGeometry x="79" y="460" width="120" height="40" as="geometry" />
        </mxCell>
        <mxCell id="v5y05sMNcqEESHBAIN26-44" value="" style="edgeStyle=orthogonalEdgeStyle;rounded=0;orthogonalLoop=1;jettySize=auto;html=1;" edge="1" parent="1" source="v5y05sMNcqEESHBAIN26-41" target="v5y05sMNcqEESHBAIN26-43">
          <mxGeometry relative="1" as="geometry" />
        </mxCell>
        <mxCell id="v5y05sMNcqEESHBAIN26-49" style="edgeStyle=orthogonalEdgeStyle;rounded=0;orthogonalLoop=1;jettySize=auto;html=1;entryX=0.5;entryY=0;entryDx=0;entryDy=0;" edge="1" parent="1" source="v5y05sMNcqEESHBAIN26-41" target="v5y05sMNcqEESHBAIN26-46">
          <mxGeometry relative="1" as="geometry">
            <mxPoint x="139" y="660" as="targetPoint" />
          </mxGeometry>
        </mxCell>
        <mxCell id="v5y05sMNcqEESHBAIN26-41" value="Pengumpulan hasil dari examination" style="whiteSpace=wrap;html=1;" vertex="1" parent="1">
          <mxGeometry x="79" y="563" width="120" height="60" as="geometry" />
        </mxCell>
        <mxCell id="v5y05sMNcqEESHBAIN26-43" value="Draft report investigasi forensik digital" style="shape=document;whiteSpace=wrap;html=1;boundedLbl=1;" vertex="1" parent="1">
          <mxGeometry x="279" y="559" width="120" height="68" as="geometry" />
        </mxCell>
        <mxCell id="v5y05sMNcqEESHBAIN26-45" value="" style="group" vertex="1" connectable="0" parent="1">
          <mxGeometry x="109" y="654" width="60" height="60" as="geometry" />
        </mxCell>
        <mxCell id="v5y05sMNcqEESHBAIN26-46" value="" style="verticalLabelPosition=bottom;verticalAlign=top;html=1;shape=offPageConnector;rounded=0;size=0.5;" vertex="1" parent="v5y05sMNcqEESHBAIN26-45">
          <mxGeometry width="60" height="60" as="geometry" />
        </mxCell>
        <mxCell id="v5y05sMNcqEESHBAIN26-47" value="B" style="text;html=1;align=center;verticalAlign=middle;whiteSpace=wrap;rounded=0;" vertex="1" parent="v5y05sMNcqEESHBAIN26-45">
          <mxGeometry y="7" width="60" height="30" as="geometry" />
        </mxCell>
        <mxCell id="vrHwYXxvHCc7wUz3a9I5-2" style="edgeStyle=orthogonalEdgeStyle;rounded=0;orthogonalLoop=1;jettySize=auto;html=1;entryX=0.5;entryY=0;entryDx=0;entryDy=0;" edge="1" parent="1" source="vrHwYXxvHCc7wUz3a9I5-1" target="v5y05sMNcqEESHBAIN26-12">
          <mxGeometry relative="1" as="geometry" />
        </mxCell>
        <mxCell id="vrHwYXxvHCc7wUz3a9I5-4" value="Yes" style="edgeLabel;html=1;align=center;verticalAlign=middle;resizable=0;points=[];" vertex="1" connectable="0" parent="vrHwYXxvHCc7wUz3a9I5-2">
          <mxGeometry x="-0.1888" y="1" relative="1" as="geometry">
            <mxPoint as="offset" />
          </mxGeometry>
        </mxCell>
        <mxCell id="vrHwYXxvHCc7wUz3a9I5-5" style="edgeStyle=orthogonalEdgeStyle;rounded=0;orthogonalLoop=1;jettySize=auto;html=1;entryX=0.5;entryY=0;entryDx=0;entryDy=0;" edge="1" parent="1" source="vrHwYXxvHCc7wUz3a9I5-1" target="v5y05sMNcqEESHBAIN26-24">
          <mxGeometry relative="1" as="geometry" />
        </mxCell>
        <mxCell id="vrHwYXxvHCc7wUz3a9I5-7" value="No" style="edgeLabel;html=1;align=center;verticalAlign=middle;resizable=0;points=[];" vertex="1" connectable="0" parent="vrHwYXxvHCc7wUz3a9I5-5">
          <mxGeometry x="0.0328" y="-2" relative="1" as="geometry">
            <mxPoint as="offset" />
          </mxGeometry>
        </mxCell>
        <mxCell id="vrHwYXxvHCc7wUz3a9I5-1" value="Volatile" style="rhombus;whiteSpace=wrap;html=1;" vertex="1" parent="1">
          <mxGeometry x="99" y="240" width="80" height="80" as="geometry" />
        </mxCell>
      </root>
    </mxGraphModel>
  </diagram>
  <diagram id="suWQWezb392EDhTQtnhL" name="Analysis">
    <mxGraphModel dx="1194" dy="727" grid="1" gridSize="10" guides="1" tooltips="1" connect="1" arrows="1" fold="1" page="1" pageScale="1" pageWidth="827" pageHeight="1169" math="0" shadow="0">
      <root>
        <mxCell id="0" />
        <mxCell id="1" parent="0" />
      </root>
    </mxGraphModel>
  </diagram>
  <diagram id="uGSIRrlSgZF0aqr_Dv7h" name="Report">
    <mxGraphModel dx="1194" dy="727" grid="1" gridSize="10" guides="1" tooltips="1" connect="1" arrows="1" fold="1" page="1" pageScale="1" pageWidth="827" pageHeight="1169" math="0" shadow="0">
      <root>
        <mxCell id="0" />
        <mxCell id="1" parent="0" />
      </root>
    </mxGraphModel>
  </diagram>
</mxfile>
